<svg width="18" height="14" fill="#E5E5E5" viewBox="0 0 18 14" xmlns="http://www.w3.org/2000/svg">
<path d="M9 2.41667C12.1009 2.41667 14.8664 4.19167 16.2164 7C14.8664 9.80833 12.1009 11.5833 9 11.5833C5.89909 11.5833 3.13364 9.80833 1.78364 7C3.13364 4.19167 5.89909 2.41667 9 2.41667ZM9 0.75C4.90909 0.75 1.41545 3.34167 0 7C1.41545 10.6583 4.90909 13.25 9 13.25C13.0909 13.25 16.5845 10.6583 18 7C16.5845 3.34167 13.0909 0.75 9 0.75ZM9 4.91667C10.1291 4.91667 11.0455 5.85 11.0455 7C11.0455 8.15 10.1291 9.08333 9 9.08333C7.87091 9.08333 6.95455 8.15 6.95455 7C6.95455 5.85 7.87091 4.91667 9 4.91667ZM9 3.25C6.97091 3.25 5.31818 4.93333 5.31818 7C5.31818 9.06667 6.97091 10.75 9 10.75C11.0291 10.75 12.6818 9.06667 12.6818 7C12.6818 4.93333 11.0291 3.25 9 3.25Z"/>
</svg>
