<svg width="18" height="17" fill="#E5E5E5" viewBox="0 0 18 17" xmlns="http://www.w3.org/2000/svg">
<path d="M9 3.46606C12.1009 3.46606 14.8664 5.24569 16.2164 8.06136C15.7336 9.08068 15.0545 9.95796 14.2445 10.6681L15.3982 11.8462C16.5355 10.8185 17.4355 9.53185 18 8.06136C16.5845 4.39347 13.0909 1.79504 9 1.79504C7.96091 1.79504 6.96273 1.96214 6.02182 2.27128L7.37182 3.64987C7.90364 3.54125 8.44364 3.46606 9 3.46606ZM8.12455 4.41854L9.81818 6.14804C10.2845 6.35692 10.6609 6.74125 10.8655 7.21749L12.5591 8.947C12.6245 8.66292 12.6736 8.36214 12.6736 8.053C12.6818 5.98094 11.0291 4.30157 9 4.30157C8.69727 4.30157 8.41091 4.34334 8.12455 4.41854ZM0.826364 1.68642L3.01909 3.92559C1.68545 4.99504 0.63 6.41541 0 8.06136C1.41545 11.7292 4.90909 14.3277 9 14.3277C10.2436 14.3277 11.4382 14.0854 12.5345 13.6426L15.3327 16.5L16.4864 15.3219L1.98 0.5L0.826364 1.68642ZM6.96273 7.95274L9.09818 10.1334C9.06545 10.1418 9.03273 10.1501 9 10.1501C7.87091 10.1501 6.95455 9.21436 6.95455 8.06136C6.95455 8.01958 6.96273 7.99452 6.96273 7.95274ZM4.18091 5.11201L5.61273 6.57415C5.42455 7.03368 5.31818 7.53499 5.31818 8.06136C5.31818 10.1334 6.97091 11.8211 9 11.8211C9.51545 11.8211 10.0064 11.7125 10.4482 11.5204L11.25 12.3392C10.53 12.5397 9.77727 12.6567 9 12.6567C5.89909 12.6567 3.13364 10.877 1.78364 8.06136C2.35636 6.86658 3.19091 5.88068 4.18091 5.11201Z"/>
</svg>
